<svg xmlns="http://www.w3.org/2000/svg" viewBox="0 0 24 24" width="24px" height="24px"><path d="M12 .5C5.73.5.5 5.73.5 12c0 5.08 3.29 9.38 7.86 10.88.58.1.79-.25.79-.56 0-.28-.01-1.02-.01-2-3.2.7-3.88-1.54-3.88-1.54-.53-1.34-1.3-1.7-1.3-1.7-1.06-.72.08-.71.08-.71 1.17.08 1.79 1.2 1.79 1.2 1.04 1.78 2.73 1.27 3.4.97.1-.75.41-1.27.75-1.56-2.56-.29-5.26-1.28-5.26-5.7 0-1.26.45-2.29 1.19-3.1-.12-.29-.52-1.46.11-3.04 0 0 .97-.31 3.18 1.18.92-.26 1.91-.39 2.89-.39.98 0 1.97.13 2.89.39 2.21-1.49 3.18-1.18 3.18-1.18.63 1.58.23 2.75.11 3.04.74.81 1.19 1.84 1.19 3.1 0 4.43-2.71 5.41-5.29 5.69.42.36.8 1.08.8 2.18 0 1.57-.01 2.84-.01 3.23 0 .31.21.66.8.55C20.71 21.38 24 17.08 24 12c0-6.27-5.23-11.5-12-11.5z"/></svg>