<svg xmlns="http://www.w3.org/2000/svg" viewBox="0 0 48 48" width="24px" height="24px"><path fill="#4285F4" d="M24 9.5c3.1 0 5.6 1.1 7.5 2.9l5.6-5.6C33.4 3.2 28.9 1 24 1 14.6 1 6.9 6.8 3.4 15.1l6.9 5.4C12.3 14.1 17.6 9.5 24 9.5z"/><path fill="#34A853" d="M46.5 24c0-1.6-.1-3.1-.4-4.5H24v9h12.7c-.5 2.6-2 4.8-4.1 6.3l6.5 5.1c3.8-3.5 6-8.7 6-14.9z"/><path fill="#FBBC05" d="M10.3 28.5c-1.1-2.6-1.1-5.4 0-8l-6.9-5.4C1.2 18.4 0 21.1 0 24s1.2 5.6 3.4 8.9l6.9-5.4z"/><path fill="#EA4335" d="M24 48c6.5 0 12-2.1 16-5.7l-6.5-5.1c-2.1 1.4-4.8 2.3-7.5 2.3-6.4 0-11.7-4.6-13.6-10.8l-6.9 5.4C6.9 41.2 14.6 48 24 48z"/></svg>